<svg width="16"
        height="16"
        viewBox="0 0 24 24"
        fill="currentColor"
        >
<path d="M12 7a1 1 0 0 0-1 1v4a1 1 0 0 0 2 0V8a1 1 0 0 0-1-1Zm0 8a1 1 0 1 0 0 2 1 1 0 0 0 0-2Zm9.71-7.44-5.27-5.27a1.05 1.05 0 0 0-.71-.29H8.27a1.05 1.05 0 0 0-.71.29L2.29 7.56a1.05 1.05 0 0 0-.29.71v7.46c.004.265.107.518.29.71l5.27 5.27c.192.183.445.286.71.29h7.46a1.05 1.05 0 0 0 .71-.29l5.27-5.27a1.05 1.05 0 0 0 .29-.71V8.27a1.05 1.05 0 0 0-.29-.71ZM20 15.31 15.31 20H8.69L4 15.31V8.69L8.69 4h6.62L20 8.69v6.62Z"/>
</svg>
