<svg width="16" height="16" xmlns="http://www.w3.org/2000/svg" preserveAspectRatio="xMidYMid slice" viewBox="0 30 200 140">
    <path d="M94.26 48.17c0-3.69-.04-7.22 0-10.74.05-3.79 2.83-6.25 6.54-5.88 2.82.28 4.88 2.69 4.93 5.88.05 2.96.03 5.91.03 8.87v1.88h34.27c6.62 0 12.31 4.11 14.07 10.52 4.87 17.72 9.59 35.47 14.36 53.21.16.6.25 1.24.25 1.86 0 12.5.03 25.01-.02 37.51-.03 8.45-6 15.63-14.34 16.86-3.57.53-7.25.29-10.88.3-18.9.02-37.81.02-56.71.02-12.7 0-25.4.04-38.1-.03-9.9-.05-17.34-7.56-17.36-17.45-.03-12.36-.16-24.72.09-37.08.06-3.21 1.24-6.43 2.09-9.6 4.01-14.94 8.09-29.87 12.13-44.8 1.92-7.08 7.45-11.34 14.8-11.34h33.83Zm61.17 59.38c-.08-.5-.11-.87-.21-1.23-3.91-14.42-7.82-28.84-11.74-43.25-.8-2.92-1.56-3.49-4.61-3.49h-31.85c-.37 0-.75.06-1.16.1V75.5l.3.21c1.32-1.39 2.59-2.84 3.98-4.16 2.38-2.27 5.85-2.19 8.08.11 2.17 2.24 2.2 5.69-.06 7.98-4.7 4.76-9.43 9.49-14.19 14.18-2.27 2.23-5.69 2.21-7.97-.04-4.73-4.66-9.45-9.34-14.06-14.11-.85-.88-1.45-2.21-1.67-3.43-.43-2.45.91-4.65 3.07-5.73 2.16-1.07 4.63-.73 6.46.98 1.43 1.34 2.79 2.74 4.34 4.26V59.71c-.23-.06-.36-.13-.5-.13-11.15 0-22.3-.02-33.44 0-1.95 0-3 .91-3.52 2.84-3.9 14.42-7.8 28.84-11.69 43.26-.15.57-.28 1.15-.44 1.84H76.15c5.93 0 10.49 3.77 11.63 9.56.38 1.93.8 3.85 1.16 5.58h22.4c.31-1.84.6-3.45.84-5.08.88-5.95 5.49-10.03 11.46-10.06 6.06-.03 12.12 0 18.18 0h13.6ZM42.79 119.02c-.04.4-.07.58-.07.77 0 10.47-.03 20.94 0 31.4.01 3.41 2.59 5.78 6.13 5.78h102.36c3.65 0 6.09-2.45 6.09-6.12v-31.83h-6.06c-8.82 0-17.64 0-26.46-.02-.98 0-1.49.16-1.6 1.29-.13 1.39-.54 2.75-.79 4.13-1.09 5.99-5.36 9.6-11.45 9.62-7.27.02-14.54.02-21.81 0-6.12-.01-10.37-3.54-11.54-9.53-.36-1.84-.77-3.67-1.15-5.48H42.76Z" fill="white" />
</svg>
